<svg id="Capa_1" data-name="Capa 1" xmlns="http://www.w3.org/2000/svg" viewBox="0 0 283.46 48.16"><defs><style>.cls-1{fill:#fff;}</style></defs><path class="cls-1" d="M6.76,48.16A7.14,7.14,0,0,1,2,46.46,6.3,6.3,0,0,1,0,41.4a6.76,6.76,0,0,1,2.07-5.28,6.89,6.89,0,0,1,4.75-1.87,6.57,6.57,0,0,1,4.66,1.84,6.79,6.79,0,0,1,2,5.25,6.4,6.4,0,0,1-2,5.12A7,7,0,0,1,6.76,48.16Z" transform="translate(0)"/><path class="cls-1" d="M40.16,47.57a25.36,25.36,0,0,1-12.4-2.85,19.24,19.24,0,0,1-7.94-8.14,26.65,26.65,0,0,1-2.76-12.5,27.2,27.2,0,0,1,2.85-12.83,20.24,20.24,0,0,1,8-8.33A24,24,0,0,1,40,0,24.57,24.57,0,0,1,49.9,2a17.43,17.43,0,0,1,7.32,5.9,19.87,19.87,0,0,1,3.35,10H49.34a8.71,8.71,0,0,0-3-4.89,9.37,9.37,0,0,0-6-1.74,10.61,10.61,0,0,0-6.57,1.84,10,10,0,0,0-3.44,4.66,17.05,17.05,0,0,0-1,5.84,17.28,17.28,0,0,0,1.08,6A10.93,10.93,0,0,0,34,34.42a10.37,10.37,0,0,0,6.59,1.93,11.4,11.4,0,0,0,4.33-.75,7.61,7.61,0,0,0,3-2.23,8.43,8.43,0,0,0,1.68-3.58H61.09a17.9,17.9,0,0,1-3.41,9.88A18.55,18.55,0,0,1,50,45.6,24.78,24.78,0,0,1,40.16,47.57Z" transform="translate(0)"/><path class="cls-1" d="M88.91,47.57a25.1,25.1,0,0,1-12.4-3,20.7,20.7,0,0,1-8.24-8.3,25.62,25.62,0,0,1-2.92-12.43,25.34,25.34,0,0,1,3-12.64A21.16,21.16,0,0,1,76.77,3,25.49,25.49,0,0,1,89.24,0a25.42,25.42,0,0,1,12.34,2.89,20.92,20.92,0,0,1,8.33,8.17,24.77,24.77,0,0,1,3,12.5,25.48,25.48,0,0,1-3,12.5,21.36,21.36,0,0,1-8.4,8.46A25.23,25.23,0,0,1,88.91,47.57Zm.26-11.22a10.91,10.91,0,0,0,6.76-1.93,11.1,11.1,0,0,0,3.71-4.83,14.82,14.82,0,0,0,.52-10,13.24,13.24,0,0,0-2-4.1,10.09,10.09,0,0,0-3.58-3.09,11.66,11.66,0,0,0-5.51-1.18,11,11,0,0,0-6.69,1.87,10.92,10.92,0,0,0-3.75,4.76,15.73,15.73,0,0,0-1.18,6,15.22,15.22,0,0,0,1.22,6,10.75,10.75,0,0,0,3.8,4.72A11.23,11.23,0,0,0,89.17,36.35Z" transform="translate(0)"/><path class="cls-1" d="M119.16,47.05V.59h18.18A28.65,28.65,0,0,1,150,3.21,18.86,18.86,0,0,1,158.3,11q2.92,5.19,2.92,13a26.14,26.14,0,0,1-2.82,12.73,18.06,18.06,0,0,1-8.14,7.7,28.91,28.91,0,0,1-12.79,2.6Zm11.88-11h6.56a13.22,13.22,0,0,0,6.92-1.54,8.6,8.6,0,0,0,3.61-4.3,17.37,17.37,0,0,0,1.08-6.36,17.7,17.7,0,0,0-1.05-6.27,8.58,8.58,0,0,0-3.67-4.4,14.11,14.11,0,0,0-7.35-1.61H131Z" transform="translate(0)"/><path class="cls-1" d="M167.52,47.05V.59H179.4V47.05Z" transform="translate(0)"/><path class="cls-1" d="M188.19,47.05V.59h11.09L218.9,27.16V.59h11.87V47.05H220L200.07,20.87V47.05Z" transform="translate(0)"/><path class="cls-1" d="M251.84,47.05,235.17.59H248.1l11.48,36.48L270.6.59h12.86L266.93,47.05Z" transform="translate(0)"/></svg>